# xmcd CD database file
#
# Track frame offsets:
#	150
#	12764
#	27082
#	39714
#	50642
#	61682
#	72739
#	84090
#	96564
#	109249
#	122515
#	134478
#	146604
#	159333
#	172157
#	185135
#	198651
#	212193
#
# Disc length: 3016 seconds
#
# Revision: 0
# Processed by: cddbd v1.4PL0 Copyright (c) Steve Scherf et al.
# Submitted via: CDex 1.50
#
DISCID=0e0bc612
DTITLE=Dizzy Gillespie - dg
DYEAR=1900
DGENRE=Jazz
TTITLE0=All the Things you are
TTITLE1=Be-Bop
TTITLE2=Dizzy Atmosphere
TTITLE3=Grand Central Gataway
TTITLE4=No Smoke Blues
TTITLE5=Says Who? Says You, Says ?
TTITLE6=Something For You
TTITLE7=Sorta Kinda
TTITLE8=Mason Flyer
TTITLE9=Seventh Avenue
TTITLE10=Signing Off
TTITLE11=Mound Bayou
TTITLE12=The Cannonball
TTITLE13=Down Under
TTITLE14=East Of The Sun
TTITLE15=Good Jelly Blues
TTITLE16=Woodyn´ You
TTITLE17=Unlucky Woman
EXTD=
EXTT0=
EXTT1=
EXTT2=
EXTT3=
EXTT4=
EXTT5=
EXTT6=
EXTT7=
EXTT8=
EXTT9=
EXTT10=
EXTT11=
EXTT12=
EXTT13=
EXTT14=
EXTT15=
EXTT16=
EXTT17=
PLAYORDER=
